<svg xmlns="http://www.w3.org/2000/svg" width="320" height="64" viewBox="0 0 320 64" shape-rendering="crispEdges">
  <rect width="320" height="64" fill="#1a1410"/>
  <rect x="4" y="4" width="312" height="56" fill="#231a14"/>
  <rect x="6" y="6" width="308" height="52" fill="#120e0b"/>
  <!-- crest -->
  <g transform="translate(16,12)">
    <rect x="0" y="0" width="40" height="40" fill="#2a211a"/>
    <rect x="2" y="2" width="36" height="36" fill="#14100d"/>
    <rect x="10" y="8" width="20" height="4" fill="#d2b16a"/>
    <rect x="18" y="12" width="4" height="18" fill="#d2b16a"/>
    <rect x="10" y="30" width="20" height="4" fill="#d2b16a"/>
  </g>
  <!-- title (pixel-ish blocks) -->
  <g fill="#f6e7cf">
    <rect x="72" y="18" width="8" height="28"/>
    <rect x="82" y="18" width="24" height="8"/>
    <rect x="82" y="30" width="20" height="8"/>
    <rect x="82" y="38" width="24" height="8"/>

    <rect x="114" y="18" width="8" height="28"/>
    <rect x="124" y="18" width="24" height="8"/>
    <rect x="124" y="38" width="24" height="8"/>
    <rect x="146" y="26" width="8" height="20"/>

    <rect x="164" y="18" width="8" height="28"/>
    <rect x="174" y="18" width="24" height="8"/>
    <rect x="174" y="30" width="20" height="8"/>
    <rect x="174" y="38" width="24" height="8"/>

    <rect x="208" y="18" width="8" height="28"/>
    <rect x="218" y="18" width="24" height="8"/>
    <rect x="218" y="38" width="24" height="8"/>
    <rect x="240" y="18" width="8" height="28"/>

    <rect x="258" y="18" width="8" height="28"/>
    <rect x="268" y="18" width="28" height="8"/>
    <rect x="268" y="30" width="22" height="8"/>
    <rect x="268" y="38" width="28" height="8"/>
  </g>
  <!-- glow accents -->
  <rect x="6" y="56" width="308" height="2" fill="#d2b16a" opacity="0.65"/>
</svg>
